{"glyphs":{":":{"x_min":0,"x_max":257,"ha":257,"o":"m 204 345 l 53 345 l 53 493 l 204 493 z m 204 0 l 53 0 l 53 151 l 204 151 z"},"$":{"x_min":0,"x_max":586,"ha":586,"o":"m 316 20 l 316 -73 l 238 -73 l 238 19 q 62 38 23 189 l 158 220 q 181 133 284 133 q 333 133 358 152 q 383 171 383 198 q 383 226 361 241 q 339 256 275 269 q 136 297 96 346 q 56 395 56 459 q 56 536 106 590 q 157 644 238 653 l 238 730 l 316 730 l 316 654 q 467 640 513 510 l 390 469 q 365 542 284 542 q 198 542 198 487 q 198 464 214 449 q 230 434 287 422 q 382 403 426 384 q 470 364 500 321 q 530 277 530 224 q 530 149 477 90 q 424 30 316 20 z"},"?":{"x_min":0,"x_max":510,"ha":510,"o":"m 180 191 l 180 209 q 180 298 194 322 q 208 345 267 389 q 298 412 311 431 q 323 451 323 480 q 323 517 300 537 q 277 558 244 558 q 158 558 147 436 l 13 455 q 28 565 94 622 q 160 679 254 679 q 351 679 417 623 q 482 567 482 482 q 482 376 373 305 q 326 273 316 256 q 306 238 306 191 z m 330 0 l 177 0 l 177 147 l 330 147 z"},"<":{"x_min":0,"x_max":586,"ha":586,"o":"m 500 616 l 500 479 l 212 334 l 500 189 l 500 53 l 67 277 l 67 392 z"},"'":{"x_min":0,"x_max":194,"ha":194,"o":"m 138 389 l 55 389 l 38 667 l 156 667 z"},"=":{"x_min":0,"x_max":586,"ha":586,"o":"m 541 477 l 541 370 l 46 370 l 46 477 z m 541 293 l 541 187 l 46 187 l 46 293 z"},"a":{"x_min":0,"x_max":542,"ha":542,"o":"m 491 0 l 350 0 q 343 29 343 77 q 306 24 269 7 q 232 -10 185 -10 q 116 -10 73 27 q 30 65 30 128 q 30 175 55 214 q 80 253 135 275 q 190 297 336 308 l 336 336 q 336 408 265 408 q 188 408 179 336 l 45 349 q 58 433 125 468 q 191 503 275 503 q 325 503 370 492 q 414 480 439 457 q 464 433 473 407 q 481 381 481 316 l 481 92 q 481 28 491 0 z m 336 236 q 184 221 184 144 q 184 118 200 99 q 216 81 246 81 q 284 81 310 113 q 336 145 336 191 z"},"L":{"x_min":0,"x_max":503,"ha":503,"o":"m 225 132 l 490 132 l 490 0 l 67 0 l 67 667 l 225 667 z"},"3":{"x_min":0,"x_max":586,"ha":586,"o":"m 194 403 l 265 403 q 325 403 346 428 q 368 453 368 481 q 368 513 344 537 q 320 562 278 562 q 197 562 176 477 l 38 499 q 55 576 120 626 q 186 677 282 677 q 383 677 451 629 q 520 581 520 498 q 520 389 406 349 q 540 313 540 191 q 540 103 471 46 q 403 -10 282 -10 q 167 -10 99 48 q 31 106 18 193 l 159 213 q 180 110 278 110 q 324 110 353 134 q 381 159 381 200 q 381 243 355 265 q 329 286 255 286 l 194 286 z"},";":{"x_min":0,"x_max":257,"ha":257,"o":"m 204 493 l 204 346 l 53 346 l 53 493 z m 204 149 l 204 13 l 106 -158 l 53 -158 l 128 -2 l 53 -2 l 53 149 z"},"J":{"x_min":0,"x_max":381,"ha":381,"o":"m 321 667 l 321 191 q 321 89 272 40 q 224 -10 112 -10 q 63 -10 7 0 l 7 129 q 53 122 86 122 q 116 122 133 132 q 149 143 157 158 q 165 173 165 210 l 165 667 z"},"V":{"x_min":0,"x_max":556,"ha":556,"o":"m 562 667 l 361 0 l 193 0 l -7 667 l 159 667 l 292 190 l 431 667 z"},"\"":{"x_min":0,"x_max":371,"ha":371,"o":"m 138 389 l 55 389 l 38 667 l 156 667 z m 315 389 l 232 389 l 214 667 l 333 667 z"},"7":{"x_min":0,"x_max":586,"ha":586,"o":"m 535 667 l 535 548 q 490 500 436 399 q 382 298 364 202 q 346 106 346 49 q 346 32 348 0 l 169 0 q 171 79 184 143 q 197 208 235 291 q 272 375 311 428 q 349 482 395 529 l 57 529 l 69 667 z"},"S":{"x_min":0,"x_max":581,"ha":581,"o":"m 527 520 l 395 476 q 368 555 281 555 q 188 555 188 495 q 188 471 205 454 q 223 438 284 425 q 386 405 433 384 q 480 363 513 316 q 545 270 545 212 q 545 122 476 56 q 406 -10 270 -10 q 167 -10 95 36 q 23 83 0 175 l 145 208 q 169 114 280 114 q 334 114 360 135 q 387 156 387 185 q 387 214 363 230 q 339 246 271 260 q 143 287 89 332 q 35 378 35 466 q 35 555 99 616 q 164 677 275 677 q 471 677 527 520 z"},"}":{"x_min":0,"x_max":293,"ha":293,"o":"m 160 250 q 100 281 100 367 l 100 543 q 100 584 94 596 q 87 607 59 607 l 41 607 l 41 665 q 55 665 86 666 q 103 667 107 667 q 171 667 196 635 q 221 603 221 534 l 221 352 q 221 305 239 290 q 257 274 276 272 l 276 219 q 221 211 221 148 l 221 -34 q 221 -107 194 -137 q 167 -167 106 -167 q 103 -167 86 -166 q 63 -165 41 -165 l 41 -107 l 56 -107 q 85 -107 92 -97 q 100 -87 100 -43 l 100 134 q 100 164 109 195 q 118 226 160 250 z"},"Z":{"x_min":0,"x_max":578,"ha":578,"o":"m 547 552 l 210 127 l 558 127 l 558 0 l 20 0 l 20 113 l 356 541 l 42 541 l 42 667 l 547 667 z"},"x":{"x_min":0,"x_max":494,"ha":494,"o":"m 470 493 l 328 265 l 494 0 l 328 0 l 225 170 l 125 0 l 0 0 l 163 265 l 22 493 l 188 493 l 267 360 l 345 493 z"},")":{"x_min":0,"x_max":293,"ha":293,"o":"m 132 667 q 271 467 271 252 q 271 24 129 -167 l 23 -167 q 138 21 138 249 q 138 480 25 667 z"},"&":{"x_min":0,"x_max":718,"ha":718,"o":"m 701 364 q 678 252 592 152 q 623 121 661 121 q 674 121 701 124 l 701 5 q 665 -4 634 -4 q 545 -4 490 60 q 399 -13 282 -13 q 154 -13 91 51 q 28 115 28 197 q 28 330 193 390 q 155 438 143 466 q 132 493 132 523 q 132 594 188 637 q 244 680 337 680 q 432 680 484 633 q 536 586 536 515 q 536 405 410 353 l 504 251 q 544 295 563 383 z m 343 435 q 415 461 415 512 q 415 540 395 559 q 376 579 342 579 q 314 579 297 564 q 279 550 279 528 q 279 500 315 463 z m 273 301 q 195 274 195 208 q 195 169 223 139 q 251 110 298 110 q 359 110 409 150 z"},"_":{"x_min":0,"x_max":500,"ha":500,"o":"m 0 -46 l 500 -46 l 500 -163 l 0 -163 z"},"v":{"x_min":0,"x_max":451,"ha":451,"o":"m 448 493 l 279 0 l 166 0 l -3 493 l 148 493 l 243 181 l 340 493 z"},"O":{"x_min":0,"x_max":639,"ha":639,"o":"m 317 -10 q 183 -10 109 91 q 35 192 35 335 q 35 481 110 579 q 185 677 323 677 q 462 677 533 573 q 604 468 604 334 q 604 189 531 89 q 458 -10 317 -10 z m 322 549 q 199 549 199 333 q 199 117 322 117 q 441 117 441 333 q 441 549 322 549 z"},"(":{"x_min":0,"x_max":293,"ha":293,"o":"m 161 -167 q 22 32 22 248 q 22 475 164 667 l 270 667 q 155 477 155 251 q 155 20 268 -167 z"},"C":{"x_min":0,"x_max":627,"ha":627,"o":"m 604 418 l 441 408 q 438 549 331 549 q 209 549 209 332 q 209 207 242 162 q 275 117 335 117 q 432 117 453 243 l 604 234 q 590 114 515 52 q 441 -10 333 -10 q 201 -10 118 81 q 35 172 35 333 q 35 484 115 581 q 195 677 334 677 q 574 677 604 418 z"},"W":{"x_min":0,"x_max":873,"ha":873,"o":"m 867 667 l 699 0 l 546 0 l 436 441 l 331 0 l 178 0 l 7 667 l 166 667 l 258 260 q 258 257 263 238 q 265 231 269 218 l 377 667 l 521 667 l 634 218 q 637 230 644 260 l 738 667 z"},"A":{"x_min":0,"x_max":608,"ha":608,"o":"m 395 667 l 603 0 l 435 0 l 395 137 l 179 137 l 137 0 l 0 0 l 213 667 z m 216 260 l 358 260 l 287 494 z"},"f":{"x_min":0,"x_max":320,"ha":320,"o":"m 212 380 l 212 0 l 70 0 l 70 380 l 13 380 l 13 493 l 70 493 q 71 569 81 604 q 91 639 133 666 q 174 693 246 693 q 275 693 313 688 l 313 576 q 282 578 261 578 q 231 578 222 562 q 212 547 212 512 l 212 493 l 301 493 l 301 380 z"},"Q":{"x_min":0,"x_max":644,"ha":644,"o":"m 586 -131 q 558 -138 530 -138 q 441 -138 411 -99 q 380 -61 375 -3 q 338 -7 312 -7 q 186 -7 111 92 q 35 190 35 333 q 35 473 108 575 q 181 677 322 677 q 462 677 535 575 q 608 474 608 332 q 608 218 567 142 q 525 66 468 33 q 468 -18 527 -18 q 544 -18 586 -13 z m 322 549 q 199 549 199 333 q 199 117 321 117 q 445 117 445 331 q 445 549 322 549 z"},"w":{"x_min":0,"x_max":721,"ha":721,"o":"m 712 493 l 564 0 l 436 0 l 357 317 l 280 0 l 157 0 l 5 493 l 157 493 l 237 192 l 312 493 l 444 493 l 517 190 l 600 493 z"},"-":{"x_min":0,"x_max":257,"ha":257,"o":"m 12 307 l 245 307 l 245 201 l 12 201 z"},"E":{"x_min":0,"x_max":570,"ha":570,"o":"m 543 540 l 225 540 l 225 403 l 475 403 l 475 277 l 225 277 l 225 132 l 543 132 l 543 0 l 66 0 l 66 667 l 543 667 z"},"s":{"x_min":0,"x_max":473,"ha":473,"o":"m 429 374 l 323 346 q 305 413 227 413 q 154 413 154 368 q 154 351 167 340 q 181 330 237 322 q 322 311 362 296 q 403 282 427 247 q 450 212 450 162 q 450 85 392 38 q 334 -10 230 -10 q 42 -10 5 136 l 128 154 q 143 87 237 87 q 273 87 298 100 q 323 113 323 135 q 323 169 268 176 q 119 194 72 233 q 24 272 24 341 q 24 412 79 458 q 134 503 232 503 q 311 503 357 473 q 404 442 429 374 z"},">":{"x_min":0,"x_max":586,"ha":586,"o":"m 86 53 l 86 190 l 374 334 l 86 480 l 86 616 l 520 392 l 520 276 z"},"l":{"x_min":0,"x_max":265,"ha":265,"o":"m 60 0 l 60 667 l 206 667 l 206 0 z"},"8":{"x_min":0,"x_max":586,"ha":586,"o":"m 434 360 q 558 309 558 196 q 558 106 487 48 q 416 -10 283 -10 q 160 -10 94 43 q 29 97 29 180 q 29 285 148 328 q 51 382 51 480 q 51 562 115 619 q 180 677 295 677 q 405 677 470 627 q 535 577 535 501 q 535 404 434 360 z m 332 403 q 399 424 399 488 q 399 527 371 552 q 343 576 291 576 q 248 576 224 556 q 200 536 200 504 q 200 474 224 453 q 247 432 332 403 z m 252 278 q 169 254 169 186 q 169 144 202 120 q 234 97 292 97 q 343 97 375 115 q 407 133 407 169 q 407 197 384 220 q 361 243 252 278 z"},"\\":{"x_min":0,"x_max":535,"ha":535,"o":"m 502 -167 l 27 667 l 125 667 l 601 -167 z"},"e":{"x_min":0,"x_max":535,"ha":535,"o":"m 503 222 l 186 222 q 185 209 185 199 q 185 146 213 120 q 241 93 280 93 q 353 93 368 170 l 500 161 q 444 -10 275 -10 q 202 -10 150 19 q 99 49 65 105 q 32 162 32 241 q 32 359 99 431 q 166 503 271 503 q 367 503 435 436 q 503 369 503 222 z m 185 307 l 360 307 q 354 408 277 408 q 195 408 185 307 z"},"b":{"x_min":0,"x_max":544,"ha":544,"o":"m 206 667 l 206 431 q 245 503 328 503 q 413 503 462 435 q 511 366 511 247 q 511 131 460 61 q 410 -10 314 -10 q 264 -10 233 7 q 202 24 170 76 q 156 62 138 0 l 60 0 l 60 667 z m 206 195 q 206 144 227 117 q 249 91 279 91 q 315 91 339 123 q 362 155 362 247 q 362 352 338 379 q 314 406 283 406 q 248 406 227 375 q 206 345 206 290 z"},"%":{"x_min":0,"x_max":689,"ha":689,"o":"m 166 329 q 100 329 64 378 q 28 428 28 500 q 28 572 64 622 q 99 671 166 671 q 232 671 268 622 q 304 573 304 500 q 304 427 268 378 q 232 329 166 329 z m 167 611 q 139 611 128 587 q 118 563 118 501 q 118 440 128 415 q 139 391 166 391 q 192 391 204 415 q 215 439 215 498 q 215 562 204 587 q 193 611 167 611 z m 122 0 l 491 667 l 565 667 l 195 0 z m 522 -5 q 456 -5 420 45 q 385 94 385 167 q 385 239 420 289 q 456 338 523 338 q 589 338 625 288 q 661 239 661 167 q 661 93 625 44 q 589 -5 522 -5 z m 523 278 q 499 278 486 257 q 474 235 474 167 q 474 106 485 82 q 497 57 523 57 q 549 57 561 82 q 572 106 572 164 q 572 229 561 253 q 550 278 523 278 z"},"m":{"x_min":0,"x_max":824,"ha":824,"o":"m 764 0 l 619 0 l 619 273 q 619 331 615 348 q 612 365 597 377 q 583 388 558 388 q 534 388 509 371 q 484 354 484 273 l 484 0 l 339 0 l 339 273 q 339 332 333 349 q 328 367 313 377 q 298 388 275 388 q 238 388 219 365 q 201 341 201 273 l 201 0 l 60 0 l 60 493 l 197 493 l 197 418 q 231 503 335 503 q 430 503 472 418 q 513 503 615 503 q 664 503 699 483 q 734 463 749 431 q 764 399 764 320 z"},"#":{"x_min":0,"x_max":586,"ha":586,"o":"m 524 303 l 507 206 l 413 206 l 376 0 l 278 0 l 314 206 l 238 206 l 201 0 l 104 0 l 141 206 l 34 206 l 51 303 l 158 303 l 171 378 l 66 378 l 83 475 l 188 475 l 222 667 l 319 667 l 285 475 l 362 475 l 396 667 l 494 667 l 460 475 l 553 475 l 536 378 l 443 378 l 430 303 z m 345 378 l 268 378 l 255 303 l 332 303 z"},",":{"x_min":0,"x_max":257,"ha":257,"o":"m 204 151 l 204 15 l 106 -156 l 53 -156 l 128 0 l 53 0 l 53 151 z"},"n":{"x_min":0,"x_max":549,"ha":549,"o":"m 489 0 l 343 0 l 343 277 q 343 327 339 346 q 335 364 320 377 q 305 390 282 390 q 206 390 206 277 l 206 0 l 60 0 l 60 493 l 195 493 l 195 410 q 229 469 262 486 q 294 503 333 503 q 403 503 446 466 q 489 428 489 317 z"},"h":{"x_min":0,"x_max":544,"ha":544,"o":"m 201 667 l 201 426 q 241 503 334 503 q 384 503 420 482 q 455 460 469 426 q 484 392 484 326 l 484 0 l 339 0 l 339 278 q 339 328 335 346 q 331 365 317 377 q 303 390 282 390 q 255 390 228 368 q 201 347 201 278 l 201 0 l 60 0 l 60 667 z"},"z":{"x_min":0,"x_max":428,"ha":428,"o":"m 398 493 l 398 402 l 179 106 l 408 106 l 408 0 l 20 0 l 20 106 l 237 394 l 38 394 l 38 493 z"},"B":{"x_min":0,"x_max":651,"ha":651,"o":"m 67 667 l 377 667 q 461 667 503 646 q 545 625 572 587 q 600 549 600 495 q 600 384 479 347 q 549 331 583 285 q 618 238 618 184 q 618 109 562 54 q 505 0 377 0 l 67 0 z m 223 549 l 223 403 l 341 403 q 406 403 423 428 q 439 454 439 478 q 439 503 426 521 q 412 540 395 544 q 378 549 330 549 z m 223 284 l 223 124 l 343 124 q 404 124 430 145 q 455 167 455 205 q 455 237 431 261 q 406 284 350 284 z"},"K":{"x_min":0,"x_max":630,"ha":630,"o":"m 220 667 l 220 353 l 429 667 l 579 667 l 418 429 l 619 0 l 446 0 l 314 289 l 220 153 l 220 0 l 67 0 l 67 667 z"},"R":{"x_min":0,"x_max":657,"ha":657,"o":"m 224 264 l 224 0 l 67 0 l 67 667 l 360 667 q 441 667 490 648 q 539 629 571 579 q 604 528 604 467 q 604 347 488 294 l 611 0 l 438 0 l 336 264 z m 224 548 l 224 378 l 320 378 q 367 378 388 385 q 409 391 426 414 q 442 437 442 466 q 442 494 426 516 q 409 538 390 543 q 370 548 316 548 z"},"T":{"x_min":0,"x_max":489,"ha":489,"o":"m 489 667 l 489 535 l 324 535 l 324 0 l 166 0 l 166 535 l 0 535 l 0 667 z"},"P":{"x_min":0,"x_max":604,"ha":604,"o":"m 225 248 l 225 0 l 66 0 l 66 667 l 329 667 q 417 667 464 648 q 510 629 547 581 q 583 532 583 462 q 583 413 564 366 q 544 319 509 292 q 473 265 440 256 q 406 248 335 248 z m 220 369 l 321 369 q 379 369 403 396 q 426 422 426 457 q 426 498 400 521 q 374 545 321 545 l 220 545 z"},"|":{"x_min":0,"x_max":500,"ha":500,"o":"m 181 667 l 319 667 l 319 -167 l 181 -167 z"},"t":{"x_min":0,"x_max":352,"ha":352,"o":"m 224 380 l 224 171 q 224 132 235 119 q 247 106 291 106 q 311 106 337 108 l 337 0 q 273 -11 246 -11 q 155 -11 117 24 q 79 59 79 150 l 79 380 l 0 380 l 0 493 l 87 493 l 99 639 l 224 648 l 224 493 l 330 493 l 330 380 z"},"M":{"x_min":0,"x_max":860,"ha":860,"o":"m 361 0 l 197 543 l 197 0 l 66 0 l 66 667 l 310 667 l 426 268 l 549 667 l 793 667 l 793 0 l 636 0 l 636 543 l 468 0 z"},"g":{"x_min":0,"x_max":553,"ha":553,"o":"m 553 482 q 530 487 514 487 q 466 487 458 444 q 497 402 497 350 q 497 280 439 239 q 380 197 271 197 q 231 197 194 205 q 169 190 169 167 q 169 142 190 133 q 211 125 292 121 q 405 115 448 107 q 491 99 521 67 q 550 35 550 -12 q 550 -80 487 -127 q 424 -174 265 -174 q 115 -174 62 -141 q 10 -109 10 -59 q 10 7 95 30 q 32 61 32 118 q 32 188 131 228 q 43 264 43 349 q 43 417 104 460 q 164 503 271 503 q 338 503 401 482 q 405 524 426 551 q 446 578 512 578 q 533 578 553 574 z m 270 425 q 232 425 211 405 q 189 384 189 351 q 189 276 270 276 q 309 276 331 298 q 354 320 354 351 q 354 380 333 403 q 312 425 270 425 z m 172 3 q 164 3 150 -8 q 137 -20 137 -37 q 137 -70 179 -78 q 222 -86 279 -86 q 354 -86 384 -75 q 414 -64 414 -39 q 414 -20 388 -10 q 363 0 254 0 l 225 0 q 198 0 189 1 q 179 3 172 3 z"},"j":{"x_min":0,"x_max":269,"ha":269,"o":"m 208 493 l 208 27 q 208 -12 208 -45 q 207 -77 190 -110 q 173 -144 137 -161 q 102 -178 49 -178 q 20 -178 -30 -170 l -30 -56 q -7 -58 3 -58 q 33 -58 46 -41 q 60 -23 60 27 l 60 493 z m 208 680 l 208 533 l 60 533 l 60 680 z"},"i":{"x_min":0,"x_max":265,"ha":265,"o":"m 206 493 l 206 0 l 60 0 l 60 493 z m 206 680 l 206 535 l 60 535 l 60 680 z"},"y":{"x_min":0,"x_max":445,"ha":445,"o":"m 442 493 l 288 20 q 262 -59 243 -94 q 225 -130 191 -151 q 156 -172 95 -172 q 64 -172 25 -167 l 25 -55 q 63 -62 96 -62 q 139 -62 154 -45 q 168 -29 176 0 l -3 493 l 150 493 l 245 200 l 336 493 z"},"@":{"x_min":0,"x_max":777,"ha":777,"o":"m 559 501 l 532 281 q 529 259 529 243 q 529 222 548 222 q 583 222 616 266 q 649 311 649 378 q 649 477 578 541 q 506 606 403 606 q 291 606 214 527 q 137 448 137 331 q 137 222 209 142 q 281 61 412 61 q 447 61 494 69 q 541 77 621 118 l 653 37 q 536 -24 412 -24 q 303 -24 220 20 q 138 63 88 147 q 39 231 39 331 q 39 482 145 584 q 250 687 401 687 q 545 687 642 596 q 738 506 738 380 q 738 280 679 209 q 620 138 539 138 q 484 138 456 181 q 418 136 365 136 q 307 136 265 187 q 223 237 223 319 q 223 403 270 456 q 317 509 383 509 q 426 509 460 480 l 466 501 z m 372 230 q 403 230 428 262 q 454 293 454 345 q 454 372 435 394 q 416 415 389 415 q 359 415 340 388 q 320 360 320 315 q 320 279 334 255 q 348 230 372 230 z"},".":{"x_min":0,"x_max":257,"ha":257,"o":"m 204 0 l 53 0 l 53 151 l 204 151 z"},"p":{"x_min":0,"x_max":540,"ha":540,"o":"m 60 -167 l 60 493 l 194 493 l 194 421 q 231 503 324 503 q 404 503 455 439 q 506 375 506 252 q 506 122 454 56 q 403 -10 320 -10 q 237 -10 201 55 l 201 -167 z m 201 216 q 201 164 208 144 q 214 124 234 108 q 255 92 279 92 q 309 92 332 122 q 355 153 355 257 q 355 403 278 403 q 249 403 225 377 q 201 351 201 289 z"},"X":{"x_min":0,"x_max":600,"ha":600,"o":"m 574 667 l 392 357 l 598 0 l 417 0 l 283 242 l 149 0 l 1 0 l 208 354 l 25 667 l 207 667 l 314 464 l 428 667 z"},"*":{"x_min":0,"x_max":586,"ha":586,"o":"m 465 325 l 368 257 l 292 385 l 216 257 l 118 325 l 216 435 l 72 470 l 111 577 l 247 518 l 234 667 l 351 667 l 336 518 l 479 577 l 514 470 l 368 435 z"},"Y":{"x_min":0,"x_max":521,"ha":521,"o":"m 548 667 l 339 281 l 339 0 l 183 0 l 183 281 l -27 667 l 154 667 l 282 414 l 408 667 z"},"c":{"x_min":0,"x_max":512,"ha":512,"o":"m 494 185 q 485 98 425 44 q 364 -10 268 -10 q 163 -10 97 59 q 32 128 32 244 q 32 359 99 431 q 166 503 278 503 q 369 503 428 449 q 487 395 494 313 l 358 306 q 351 395 281 395 q 194 395 194 253 q 194 159 219 133 q 243 108 277 108 q 345 108 358 193 z"},"!":{"x_min":0,"x_max":294,"ha":294,"o":"m 102 199 l 53 667 l 240 667 l 192 199 z m 70 0 l 70 154 l 224 154 l 224 0 z"},"/":{"x_min":0,"x_max":535,"ha":535,"o":"m 34 -167 l -65 -167 l 411 667 l 509 667 z"},"[":{"x_min":0,"x_max":293,"ha":293,"o":"m 263 -106 l 263 -167 l 53 -167 l 53 667 l 263 667 l 263 604 l 167 604 l 167 -106 z"},"6":{"x_min":0,"x_max":586,"ha":586,"o":"m 545 499 l 411 462 q 392 565 311 565 q 194 565 194 342 q 241 418 343 418 q 437 418 496 358 q 555 297 555 214 q 555 125 490 58 q 424 -10 315 -10 q 208 -10 146 45 q 83 100 61 176 q 39 252 39 324 q 39 478 108 577 q 177 677 313 677 q 411 677 471 625 q 530 574 545 499 z m 302 102 q 344 102 373 130 q 401 159 401 211 q 401 257 370 284 q 340 312 302 312 q 263 312 232 282 q 202 253 202 206 q 202 161 230 131 q 258 102 302 102 z"},"r":{"x_min":0,"x_max":347,"ha":347,"o":"m 201 0 l 60 0 l 60 493 l 193 493 l 193 401 q 224 504 300 504 q 311 504 326 502 l 326 359 q 282 359 257 345 q 232 332 217 296 q 201 261 201 201 z"},"2":{"x_min":0,"x_max":586,"ha":586,"o":"m 543 133 l 532 0 l 32 0 l 32 129 q 56 148 112 188 q 250 285 312 348 q 375 412 375 464 q 375 503 350 528 q 325 553 283 553 q 185 553 169 426 l 32 457 q 78 677 289 677 q 407 677 470 615 q 534 553 534 467 q 534 378 468 308 q 401 238 224 133 z"},"{":{"x_min":0,"x_max":293,"ha":293,"o":"m 157 250 q 217 219 217 133 l 217 -43 q 217 -84 223 -96 q 229 -107 258 -107 l 276 -107 l 276 -165 q 261 -165 231 -166 q 214 -167 210 -167 q 150 -167 123 -137 q 96 -107 96 -34 l 96 148 q 96 189 82 206 q 69 223 41 228 l 41 281 q 96 289 96 352 l 96 534 q 96 607 123 637 q 150 667 210 667 q 214 667 231 666 q 254 665 276 665 l 276 607 l 262 607 q 232 607 225 597 q 217 587 217 543 l 217 366 q 217 337 208 306 q 199 274 157 250 z"},"9":{"x_min":0,"x_max":586,"ha":586,"o":"m 188 177 q 208 106 276 106 q 322 106 355 144 q 388 182 390 319 q 333 250 241 250 q 152 250 94 307 q 36 364 36 455 q 36 554 102 615 q 168 677 280 677 q 361 677 421 640 q 480 604 512 523 q 544 443 544 343 q 544 193 476 91 q 407 -10 270 -10 q 93 -10 51 152 z m 283 566 q 240 566 212 535 q 184 504 184 464 q 184 424 210 394 q 237 364 281 364 q 326 364 354 395 q 382 426 382 465 q 382 505 354 535 q 326 566 283 566 z"}," ":{"x_min":0,"x_max":250,"ha":250,"o":""},"I":{"x_min":0,"x_max":290,"ha":290,"o":"m 223 667 l 223 0 l 67 0 l 67 667 z"},"H":{"x_min":0,"x_max":648,"ha":648,"o":"m 582 667 l 582 0 l 429 0 l 429 275 l 220 275 l 220 0 l 67 0 l 67 667 l 220 667 l 220 407 l 429 407 l 429 667 z"},"4":{"x_min":0,"x_max":586,"ha":586,"o":"m 470 677 l 470 271 l 563 271 l 563 154 l 470 154 l 470 0 l 314 0 l 314 154 l 23 154 l 23 271 l 292 677 z m 141 271 l 322 271 l 322 496 q 322 509 323 528 l 324 555 z"},"~":{"x_min":0,"x_max":586,"ha":586,"o":"m 124 231 l 50 282 q 82 363 117 393 q 152 423 202 423 q 235 423 307 396 q 369 374 391 374 q 434 374 460 425 l 537 378 q 479 242 377 242 q 352 242 278 269 q 212 292 194 292 q 151 292 124 231 z"},"D":{"x_min":0,"x_max":648,"ha":648,"o":"m 67 667 l 271 667 q 395 667 456 632 q 517 598 565 523 q 614 449 614 335 q 614 192 529 96 q 445 0 296 0 l 67 0 z m 220 544 l 220 125 l 285 125 q 370 125 412 189 q 453 253 453 339 q 453 399 429 451 q 406 502 371 523 q 335 544 286 544 z"},"^":{"x_min":0,"x_max":500,"ha":500,"o":"m 145 334 l 4 334 l 162 671 l 338 671 l 496 334 l 355 334 l 250 564 z"},"0":{"x_min":0,"x_max":586,"ha":586,"o":"m 292 -10 q 169 -10 101 87 q 33 184 33 333 q 33 478 100 577 q 166 677 293 677 q 419 677 486 577 q 554 478 554 334 q 554 188 486 89 q 418 -10 292 -10 z m 294 565 q 239 565 217 514 q 195 463 195 335 q 195 206 218 156 q 241 105 293 105 q 346 105 369 155 q 393 204 393 329 q 393 465 370 515 q 347 565 294 565 z"},"F":{"x_min":0,"x_max":554,"ha":554,"o":"m 541 535 l 229 535 l 229 385 l 476 385 l 476 261 l 229 261 l 229 0 l 67 0 l 67 667 l 541 667 z"},"`":{"x_min":0,"x_max":500,"ha":500,"o":"m 151 740 l 353 622 l 329 567 l 114 658 z"},"k":{"x_min":0,"x_max":543,"ha":543,"o":"m 386 326 l 546 0 l 386 0 l 283 224 l 197 126 l 197 0 l 60 0 l 60 667 l 197 667 l 197 267 l 219 294 q 232 312 242 324 l 386 493 l 527 493 z"},"u":{"x_min":0,"x_max":542,"ha":542,"o":"m 481 493 l 481 0 l 347 0 l 347 84 q 309 -10 201 -10 q 146 -10 116 10 q 86 31 73 67 q 60 103 60 171 l 60 493 l 201 493 l 201 171 q 201 104 256 104 q 284 104 304 120 q 325 136 330 154 q 336 172 336 216 l 336 493 z"},"]":{"x_min":0,"x_max":293,"ha":293,"o":"m 30 606 l 30 667 l 240 667 l 240 -167 l 30 -167 l 30 -104 l 127 -104 l 127 606 z"},"U":{"x_min":0,"x_max":649,"ha":649,"o":"m 592 667 l 592 251 q 592 151 569 102 q 546 53 485 21 q 423 -10 327 -10 q 230 -10 174 18 q 117 46 88 99 q 60 151 60 251 l 60 667 l 229 667 l 229 251 q 229 198 239 172 q 248 147 275 132 q 302 117 341 117 q 385 117 413 132 q 440 146 449 171 q 458 195 458 251 l 458 667 z"},"o":{"x_min":0,"x_max":535,"ha":535,"o":"m 265 503 q 377 503 441 430 q 504 356 504 245 q 504 136 438 63 q 373 -10 264 -10 q 158 -10 95 62 q 32 134 32 248 q 32 326 60 381 q 89 436 139 470 q 188 503 265 503 z m 269 408 q 227 408 206 376 q 185 344 185 249 q 185 162 205 124 q 225 85 268 85 q 305 85 328 118 q 351 150 351 242 q 351 339 330 374 q 310 408 269 408 z"},"N":{"x_min":0,"x_max":646,"ha":646,"o":"m 580 667 l 580 0 l 447 0 l 186 450 q 186 433 187 428 q 188 411 188 399 l 188 0 l 67 0 l 67 667 l 235 667 l 462 273 q 459 303 459 318 l 459 667 z"},"+":{"x_min":0,"x_max":586,"ha":586,"o":"m 541 390 l 541 283 l 347 283 l 347 83 l 240 83 l 240 283 l 46 283 l 46 390 l 240 390 l 240 591 l 347 591 l 347 390 z"},"G":{"x_min":0,"x_max":642,"ha":642,"o":"m 586 356 l 586 0 l 515 0 q 507 38 492 77 q 421 -10 311 -10 q 180 -10 108 83 q 35 176 35 324 q 35 483 113 580 q 190 677 323 677 q 434 677 502 614 q 571 552 586 448 l 438 428 q 419 549 323 549 q 259 549 227 492 q 194 435 194 328 q 194 226 229 171 q 265 117 330 117 q 372 117 405 145 q 438 172 438 232 l 312 232 l 312 356 z"},"q":{"x_min":0,"x_max":544,"ha":544,"o":"m 491 493 q 484 449 484 425 l 484 -167 l 342 -167 l 342 51 q 297 -10 225 -10 q 134 -10 83 58 q 33 126 33 246 q 33 366 87 435 q 140 503 236 503 q 330 503 375 425 q 399 458 412 493 z m 342 302 q 342 350 320 377 q 298 405 268 405 q 235 405 211 377 q 187 349 187 244 q 187 154 207 123 q 228 91 263 91 q 294 91 318 123 q 342 154 342 203 z"},"d":{"x_min":0,"x_max":540,"ha":540,"o":"m 479 667 l 479 0 l 345 0 l 345 77 q 295 -10 209 -10 q 127 -10 80 56 q 33 123 33 241 q 33 364 80 434 q 127 503 217 503 q 295 503 338 441 l 338 667 z m 338 287 q 338 403 268 403 q 184 403 184 239 q 184 93 262 93 q 292 93 315 119 q 338 146 338 194 z"},"1":{"x_min":0,"x_max":586,"ha":586,"o":"m 61 404 l 61 541 q 233 592 286 677 l 399 677 l 399 122 l 584 122 l 584 0 l 44 0 l 44 122 l 246 122 l 246 503 q 127 431 61 404 z"},"5":{"x_min":0,"x_max":586,"ha":586,"o":"m 502 530 l 211 530 l 201 381 q 254 438 343 438 q 433 438 496 379 q 559 320 559 226 q 559 122 491 56 q 423 -10 300 -10 q 87 -10 37 179 l 184 201 q 206 113 295 113 q 344 113 373 144 q 401 174 401 215 q 401 258 371 289 q 341 319 296 319 q 234 319 201 268 l 73 289 l 100 667 l 520 667 z"}}}
